<svg width="574" height="222" viewBox="0 0 574 222" fill="none" xmlns="http://www.w3.org/2000/svg">
<rect x="7.6875" y="37.583" width="554.962" height="157" transform="rotate(-1.07478 7.6875 37.583)" fill="#FF7904"/>
<path d="M128.035 95.1352C128.213 91.707 127.255 89.073 125.159 87.2332C123.094 85.3929 119.865 84.5139 115.472 84.5963C112.563 84.6509 110.086 85.0762 108.04 85.8723C105.993 86.6381 104.392 87.6986 103.235 89.0539C102.078 90.3789 101.364 91.9077 101.093 93.6403C100.846 95.0088 100.945 96.2193 101.389 97.2718C101.833 98.3242 102.593 99.2495 103.669 100.048C104.775 100.845 106.136 101.532 107.753 102.108C109.401 102.683 111.244 103.179 113.282 103.595L120.951 105.27C125.394 106.187 129.251 107.448 132.524 109.053C135.827 110.628 138.515 112.563 140.589 114.858C142.662 117.122 144.106 119.747 144.919 122.732C145.733 125.718 145.857 129.08 145.291 132.818C144.431 138.714 142.208 143.802 138.621 148.082C135.064 152.362 130.368 155.678 124.533 158.03C118.727 160.382 111.946 161.631 104.19 161.776C96.4339 161.922 89.8223 160.879 84.3552 158.648C78.9179 156.385 74.9427 152.899 72.4296 148.188C69.9166 143.476 69.1526 137.49 70.1378 130.227L91.634 129.824C91.357 132.83 91.7826 135.322 92.9109 137.301C94.0694 139.28 95.8248 140.763 98.177 141.749C100.529 142.735 103.357 143.197 106.659 143.136C109.689 143.079 112.332 142.62 114.589 141.759C116.876 140.898 118.688 139.727 120.024 138.248C121.391 136.767 122.208 135.085 122.476 133.201C122.746 131.468 122.43 129.974 121.528 128.718C120.655 127.461 119.18 126.383 117.103 125.482C115.055 124.581 112.373 123.783 109.056 123.087L99.697 120.99C91.9662 119.255 86.0776 116.365 82.0313 112.319C78.0153 108.273 76.5167 102.709 77.5356 95.628C78.3965 89.823 80.6951 84.7183 84.4314 80.3141C88.1979 75.9094 92.9976 72.4551 98.8304 69.9513C104.693 67.4167 111.169 66.0828 118.259 65.9498C125.47 65.8146 131.552 66.9279 136.506 69.29C141.49 71.6211 145.115 74.978 147.379 79.3605C149.673 83.7122 150.406 88.8357 149.577 94.7311L128.035 95.1352ZM152.705 159.684L166.411 66.3194L231.308 65.1019L228.561 83.4294L186.159 84.2249L183.427 103.37L222.511 102.637L219.764 121.01L180.68 121.743L177.949 140.934L220.35 140.139L217.603 158.466L152.705 159.684ZM324.61 63.3515L310.904 156.716L291.817 157.074L262.768 103.882L262.132 103.894L254.187 157.78L231.691 158.202L245.397 64.8376L264.757 64.4744L293.576 117.58L294.349 117.565L302.159 63.7727L324.61 63.3515ZM334.12 63.1731L359.252 62.7016L373.162 101.402L374.116 101.384L399.426 61.9479L424.558 61.4764L381.411 124.297L376.813 155.479L354.453 155.899L359.097 124.715L334.12 63.1731ZM430.917 154.464L406.74 154.918L451.849 60.9644L481.798 60.4025L499.496 153.178L475.319 153.631L463.787 84.1991L463.06 84.2128L430.917 154.464ZM433.139 117.78L483.675 116.832L481.087 133.974L430.551 134.922L433.139 117.78Z" fill="white"/>
</svg>
